<?xml version="1.0" standalone="no"?>
<!DOCTYPE svg PUBLIC "-//W3C//DTD SVG 20010904//EN"
 "http://www.w3.org/TR/2001/REC-SVG-20010904/DTD/svg10.dtd">
<svg version="1.0" xmlns="http://www.w3.org/2000/svg"
 width="236.000000pt" height="236.000000pt" viewBox="0 0 236.000000 236.000000"
 preserveAspectRatio="xMidYMid meet">

<g transform="translate(0.000000,236.000000) scale(0.100000,-0.100000)"
fill="#1d00fa" stroke="none">
<path d="M828 2098 c-51 -46 -57 -77 -51 -228 7 -155 2 -150 139 -150 69 0 84
-3 84 -15 0 -9 15 -25 34 -36 29 -17 35 -27 45 -82 20 -101 24 -157 12 -157
-6 0 -11 -7 -11 -15 0 -13 21 -15 130 -15 l129 0 -6 63 c-5 62 -5 62 24 73 33
12 43 44 43 134 0 146 -29 203 -110 216 -68 11 -83 33 -75 109 7 60 6 65 -18
89 -34 34 -95 36 -132 3 -40 -33 -50 -103 -24 -156 15 -32 25 -41 44 -41 41 0
28 -17 -17 -24 -112 -16 -145 -23 -167 -35 -27 -15 -35 -8 -50 47 -17 57 -3
100 40 128 46 29 58 64 35 99 -22 34 -55 32 -98 -7z"/>
<path d="M1440 1740 c0 -25 9 -35 56 -65 31 -20 81 -60 111 -88 56 -52 133
-169 133 -200 0 -13 9 -17 40 -17 39 0 39 0 29 27 -53 140 -178 280 -316 355
-45 25 -53 23 -53 -12z"/>
<path d="M709 1643 c-55 -51 -125 -152 -157 -225 l-21 -48 38 0 c33 0 40 4 45
26 16 61 119 193 192 246 38 27 42 33 27 39 -45 18 -74 9 -124 -38z"/>
<path d="M896 1652 c-66 -36 -176 -144 -214 -212 -33 -57 -37 -70 -24 -70 4 1
18 24 32 53 33 68 150 185 218 217 28 14 52 28 52 32 0 12 -11 9 -64 -20z"/>
<path d="M1450 1642 c0 -4 13 -15 28 -24 47 -28 129 -110 166 -168 39 -59 44
-80 22 -80 -21 0 -28 -15 -20 -45 8 -31 32 -33 30 -2 -1 12 4 29 11 38 20 24
-28 109 -107 190 -60 61 -130 110 -130 91z"/>
<path d="M2063 1373 c9 -2 23 -2 30 0 6 3 -1 5 -18 5 -16 0 -22 -2 -12 -5z"/>
<path d="M801 1367 c2 -2 21 -15 42 -30 l37 -28 0 31 c0 28 -2 29 -20 18 -15
-10 -22 -10 -32 0 -6 6 -16 12 -22 12 -5 0 -7 -1 -5 -3z"/>
<path d="M1887 1313 c6 -80 6 -80 33 -41 13 19 36 44 52 54 15 10 28 22 28 27
0 10 -54 -18 -69 -37 -21 -25 -31 -19 -31 19 0 19 -4 35 -8 35 -5 0 -7 -26 -5
-57z"/>
<path d="M165 1328 c-2 -7 -8 -33 -12 -58 -7 -36 -13 -45 -33 -50 -24 -6 -25
-9 -26 -84 0 -68 2 -79 18 -84 30 -7 25 -86 -7 -116 -33 -31 -32 -62 8 -166
25 -68 36 -85 52 -85 17 0 21 9 27 55 6 53 25 80 56 80 10 0 12 -10 6 -45 -7
-51 -1 -54 49 -29 40 21 47 31 47 69 0 36 8 48 38 64 21 11 23 18 20 74 -2 47
-7 62 -18 62 -8 0 -15 6 -14 13 1 6 2 26 3 43 1 22 7 32 21 36 17 5 20 14 20
69 0 34 -5 66 -10 69 -6 4 -9 25 -8 48 3 41 2 42 -30 45 -43 4 -62 -12 -62
-52 0 -36 -15 -56 -41 -56 -15 0 -19 10 -21 53 l-3 52 -38 3 c-24 2 -39 -1
-42 -10z m115 -293 c0 -34 -5 -47 -19 -55 -34 -17 -41 -11 -41 33 0 46 13 67
42 67 15 0 18 -8 18 -45z"/>
<path d="M466 1324 c-14 -35 -6 -109 13 -125 16 -15 18 -28 13 -120 -3 -73 -9
-106 -18 -112 -16 -9 -20 -147 -5 -147 5 0 28 7 52 15 24 9 96 30 159 47 63
16 127 37 141 45 36 21 59 64 59 108 0 47 -15 73 -47 86 l-26 10 20 22 c46 50
40 137 -10 168 -28 17 -52 19 -188 19 -134 0 -158 -2 -163 -16z m254 -109 c22
-26 -3 -65 -40 -65 -28 0 -30 2 -30 40 0 37 2 40 29 40 16 0 34 -7 41 -15z m3
-154 c7 -28 -20 -61 -49 -61 -21 0 -24 4 -24 40 0 39 1 40 34 40 25 0 35 -5
39 -19z"/>
<path d="M910 1280 c0 -52 3 -60 18 -60 10 0 40 -16 66 -37 l47 -36 -38 -39
c-21 -22 -51 -46 -66 -54 -26 -14 -28 -19 -25 -67 l3 -52 85 4 c47 2 88 5 93
8 4 2 7 29 7 59 0 41 -4 54 -15 54 -19 0 -19 14 0 30 22 18 69 -6 59 -29 -12
-27 -17 -92 -8 -101 5 -4 64 -11 132 -15 l122 -7 0 55 c0 49 -3 56 -22 63 -21
6 -99 69 -106 84 -5 11 63 78 83 82 17 3 20 12 23 61 l3 58 -93 -3 -93 -3 -3
-52 c-2 -42 0 -53 12 -53 24 0 30 -20 10 -35 -25 -19 -26 -19 -53 6 -16 15
-19 24 -11 29 7 4 10 26 8 56 l-3 49 -117 3 -118 3 0 -61z"/>
<path d="M1420 1281 c0 -43 4 -60 15 -65 12 -4 15 -23 15 -85 0 -61 -3 -80
-15 -85 -11 -4 -15 -20 -15 -56 0 -58 6 -63 103 -74 l57 -7 0 59 c0 44 -4 61
-15 66 -9 3 -15 18 -15 37 0 42 5 36 71 -84 l55 -101 85 -28 c46 -15 90 -28
97 -28 8 0 12 19 12 63 0 51 -4 68 -20 82 -17 16 -20 31 -20 111 0 74 3 95 15
102 13 6 15 23 13 78 l-3 69 -75 0 -75 0 -3 -60 c-2 -44 1 -62 12 -70 16 -12
33 -85 20 -85 -5 0 -31 44 -59 97 -27 53 -56 102 -63 109 -9 10 -41 14 -103
14 l-89 0 0 -59z"/>
<path d="M2008 1320 c-152 -80 -141 -403 18 -550 51 -47 108 -77 163 -86 l41
-6 20 47 c17 39 20 68 20 174 l0 127 -65 17 c-36 10 -70 15 -75 12 -6 -4 -10
-26 -10 -50 0 -35 5 -47 27 -63 29 -21 27 -52 -5 -52 -65 0 -106 146 -64 230
27 55 67 50 107 -13 6 -8 24 -18 42 -22 l32 -6 3 96 c2 53 -1 103 -5 111 -29
51 -177 72 -249 34z"/>
<path d="M2293 1225 c0 -22 2 -30 4 -17 2 12 2 30 0 40 -3 9 -5 -1 -4 -23z"/>
<path d="M50 1117 c0 -109 2 -124 19 -139 17 -14 20 -15 25 -1 10 24 7 30 -13
36 -17 4 -19 15 -17 116 0 61 -2 111 -6 111 -5 0 -8 -55 -8 -123z"/>
<path d="M2292 1130 c0 -14 2 -19 5 -12 2 6 2 18 0 25 -3 6 -5 1 -5 -13z"/>
<path d="M2303 975 c0 -44 2 -61 4 -37 2 23 2 59 0 80 -2 20 -4 1 -4 -43z"/>
<path d="M1611 914 c-1 -17 -3 -33 -6 -36 -3 -2 -51 4 -107 15 -112 21 -422
29 -550 14 -58 -6 -68 -5 -68 8 0 20 -4 19 -48 -9 -20 -13 -86 -36 -147 -51
-60 -15 -137 -38 -169 -51 -81 -33 -86 -32 -86 16 0 22 -4 40 -8 40 -22 0 -44
-30 -49 -68 -6 -46 -9 -49 -104 -92 -76 -34 -104 -54 -95 -68 5 -8 39 5 111
40 l104 52 7 43 c8 57 24 65 24 14 0 -23 1 -41 3 -41 2 0 41 14 87 31 l84 30
20 -28 c102 -142 262 -249 427 -284 71 -15 280 -6 339 16 147 52 237 117 345
248 l40 48 64 -25 c35 -14 68 -23 72 -20 5 3 9 16 9 30 0 13 5 24 10 24 6 0
10 -5 10 -10 0 -25 94 -109 154 -139 69 -34 126 -41 126 -16 0 10 -10 15 -29
15 -44 0 -145 56 -191 106 -22 24 -50 64 -62 89 -30 61 -42 57 -35 -10 6 -64
5 -65 -75 -35 -29 11 -78 26 -109 35 -49 14 -58 20 -76 58 l-22 42 0 -31z
m-121 -49 c47 -9 97 -18 112 -18 34 -2 34 -6 6 -43 -106 -135 -252 -204 -433
-204 -115 0 -191 19 -281 71 -58 33 -177 145 -169 159 3 4 27 13 55 20 28 7
53 16 56 22 3 5 18 7 32 4 15 -3 54 -1 87 4 95 14 436 4 535 -15z m-747 -89
c52 -60 158 -134 227 -159 243 -85 492 -16 653 181 27 33 57 38 57 10 0 -17
-82 -104 -136 -146 -191 -147 -467 -161 -680 -37 -50 29 -169 136 -185 168
-10 17 -5 37 10 37 4 0 28 -24 54 -54z"/>
<path d="M1116 824 c-19 -18 -19 -20 -6 -44 14 -26 126 -28 133 -2 4 15 5 15
6 0 1 -12 9 -18 26 -18 22 0 25 3 19 26 -6 22 -4 25 12 22 13 -3 18 -11 17
-26 -2 -16 3 -22 17 -22 14 0 20 7 20 24 0 13 6 26 13 29 24 9 -3 19 -50 19
-71 -1 -71 -1 -76 -19 -4 -17 -5 -17 -6 0 -1 11 -9 17 -27 17 -22 0 -25 -4
-21 -21 3 -13 1 -19 -6 -16 -7 3 -11 10 -9 17 7 29 -38 39 -62 14z m44 -24 c0
-5 -4 -10 -10 -10 -5 0 -10 5 -10 10 0 6 5 10 10 10 6 0 10 -4 10 -10z"/>
<path d="M980 795 c0 -28 4 -35 20 -35 13 0 20 7 20 19 0 10 7 24 15 31 13 11
15 8 15 -19 0 -27 3 -32 21 -29 16 2 22 11 24 36 l3 32 -59 0 -59 0 0 -35z"/>
<path d="M1020 712 c-19 -16 -21 -22 -11 -40 10 -19 20 -22 81 -22 66 0 89 10
54 24 -10 4 -13 13 -9 26 6 17 2 20 -29 20 -19 0 -41 2 -49 5 -7 3 -24 -2 -37
-13z m77 -35 c-7 -18 -57 -11 -57 8 0 15 40 25 54 14 5 -4 6 -14 3 -22z"/>
<path d="M1160 697 c0 -54 63 -66 84 -16 14 34 32 24 21 -11 -6 -18 -2 -20 34
-20 46 0 51 5 44 43 -5 26 -8 27 -64 27 -52 0 -59 -2 -59 -20 0 -11 -7 -20
-15 -20 -18 0 -19 12 -3 28 9 9 6 12 -15 12 -22 0 -27 -5 -27 -23z"/>
</g>
</svg>
